<?xml version="1.0" encoding="UTF-8" standalone="no"?>
<svg
   xmlns:dc="http://purl.org/dc/elements/1.1/"
   xmlns:cc="http://creativecommons.org/ns#"
   xmlns:rdf="http://www.w3.org/1999/02/22-rdf-syntax-ns#"
   xmlns:svg="http://www.w3.org/2000/svg"
   xmlns="http://www.w3.org/2000/svg"
   xmlns:sodipodi="http://sodipodi.sourceforge.net/DTD/sodipodi-0.dtd"
   xmlns:inkscape="http://www.inkscape.org/namespaces/inkscape"
   width="23.964088mm"
   height="21.396008mm"
   viewBox="0 0 23.964088 21.396008"
   version="1.1"
   id="svg7629"
   inkscape:version="1.0.1 (3bc2e813f5, 2020-09-07)"
   sodipodi:docname="x-imvixa.svg">
  <style
     id="style8192"></style>
  <defs
     id="defs7623">
    <clipPath
       clipPathUnits="userSpaceOnUse"
       id="clipPath883">
      <path
         d="M 0,1113.107 H 612 V 0 H 0 Z"
         id="path881" />
    </clipPath>
  </defs>
  <sodipodi:namedview
     id="base"
     pagecolor="#ffffff"
     bordercolor="#666666"
     borderopacity="1.0"
     inkscape:pageopacity="0.0"
     inkscape:pageshadow="2"
     inkscape:zoom="0.35"
     inkscape:cx="-414.71353"
     inkscape:cy="231.86199"
     inkscape:document-units="mm"
     inkscape:current-layer="layer1"
     inkscape:document-rotation="0"
     showgrid="false"
     fit-margin-top="0"
     fit-margin-left="0"
     fit-margin-right="0"
     fit-margin-bottom="0"
     inkscape:window-width="1516"
     inkscape:window-height="1020"
     inkscape:window-x="114"
     inkscape:window-y="0"
     inkscape:window-maximized="0" />
  <metadata
     id="metadata7626">
    <rdf:RDF>
      <cc:Work
         rdf:about="">
        <dc:format>image/svg+xml</dc:format>
        <dc:type
           rdf:resource="http://purl.org/dc/dcmitype/StillImage" />
        <dc:title></dc:title>
      </cc:Work>
    </rdf:RDF>
  </metadata>
  <g
     inkscape:label="Capa 1"
     inkscape:groupmode="layer"
     id="layer1"
     transform="translate(-215.55962,-86.819849)">
    <g
       id="g877"
       transform="matrix(0.35277777,0,0,-0.35277777,34.697727,115.49225)">
      <g
         id="g879"
         clip-path="url(#clipPath883)">
        <g
           id="g885"
           transform="translate(528.8354,1085.6669)" />
        <g
           id="g889"
           transform="translate(540.4404,1077.4974)" />
        <g
           id="g893"
           transform="translate(555.8955,1080.9525)" />
        <g
           id="g897"
           transform="translate(563.9048,1066.4349)" />
        <g
           id="g901"
           transform="translate(574.2031,1070.9613)" />
        <g
           id="g905"
           transform="translate(609.3955,1067.3285)" />
        <g
           id="g909"
           transform="translate(611.3574,1065.8539)" />
        <g
           id="g913"
           transform="translate(537.8164,50.951)">
          <path
             d="m 0,0 c 0,7.569 3.332,14.485 8.829,19.8 -6.665,6.441 -16.516,10.525 -27.516,10.525 -2.201,0 -4.355,-0.173 -6.45,-0.485 13.611,-2.537 23.946,-14.928 23.946,-29.842 0,-14.91 -10.329,-27.297 -23.939,-29.838 2.091,-0.312 4.244,-0.485 6.443,-0.485 11,0 20.851,4.082 27.516,10.525 C 3.332,-14.486 0,-7.569 0,0"
             style="fill:#f4711d;fill-opacity:1;fill-rule:nonzero;stroke:none"
             id="path915" />
        </g>
        <g
           id="g917"
           transform="translate(556.6641,50.9491)">
          <path
             d="m 0,0 c 0,14.914 10.334,27.303 23.945,29.842 -2.094,0.312 -4.246,0.485 -6.448,0.485 -11.001,0 -20.852,-4.084 -27.517,-10.525 5.497,-5.315 8.829,-12.231 8.829,-19.8 0,-7.569 -3.332,-14.486 -8.829,-19.8 6.665,-6.443 16.516,-10.525 27.517,-10.525 2.2,0 4.351,0.171 6.441,0.485 C 10.331,-27.297 0,-14.909 0,0"
             style="fill:#f4711d;fill-opacity:1;fill-rule:nonzero;stroke:none"
             id="path919" />
        </g>
        <g
           id="g921"
           transform="translate(546.645,31.1512)">
          <path
             d="M 0,0 C 5.497,5.313 8.828,12.23 8.828,19.8 8.828,27.37 5.497,34.285 0,39.599 -5.497,34.285 -8.829,27.37 -8.829,19.8 -8.829,12.23 -5.497,5.313 0,0"
             style="fill:#ef3f22;fill-opacity:1;fill-rule:nonzero;stroke:none"
             id="path923" />
        </g>
      </g>
    </g>
  </g>
</svg>
